# xmcd CD database file
#
# Track frame offsets:
#	150
#	12327
#	56316
#	80366
#	124351
#	198713
#	222575
#
# Disc length: 3302 seconds
#
# Revision: 0
# Processed by: cddbd v1.5.2PL0 Copyright (c) Steve Scherf et al.
# Submitted via: CDex 1.51
#
DISCID=630ce407
DTITLE=Frederic Delarue - Eyes Of Your Heart
DYEAR=2009
DGENRE=New Age
TTITLE0=Prelude To A New Life
TTITLE1=Eyes Of Your Heart
TTITLE2=An Inspiring New Day
TTITLE3=The Light Deep Within You
TTITLE4=Creating Your Own Path
TTITLE5=Eyes Of Your Heart (piano version)
TTITLE6=Legacy Of Peace
EXTD=YEAR: 2009
EXTT0=
EXTT1=
EXTT2=
EXTT3=
EXTT4=
EXTT5=
EXTT6=
PLAYORDER=
